# xmcd CD database file
#
# Track frame offsets:
#	150
#	18445
#	30014
#	42963
#	57928
#	71483
#	83067
#	93462
#	111034
#	123402
#	141418
#	155430
#	167120
#
# Disc length: 2472 seconds
#
# Revision: 0
# Processed by: cddbd v1.5.1PL2 Copyright (c) Steve Scherf et al.
# Submitted via: CDex 1.51
#
DISCID=a209a60d
DTITLE=Sammy Eubanks - My Big Fat Blues Record
DYEAR=2005
DGENRE=Blues
TTITLE0=Your Light Shines On
TTITLE1=I Declare
TTITLE2=No Tear Drops Tonight
TTITLE3=Austin (City Limits Sign)
TTITLE4=She's Got to Have It
TTITLE5=Sick and Tired
TTITLE6=All my Dyin' Days
TTITLE7=The "Real" Folsom Prison Blues
TTITLE8=She Don't Love Me She Loves My Automobile
TTITLE9=Shufflin' Back to Memphis
TTITLE10=Before the Next Tear Drop Falls
TTITLE11=You Win
TTITLE12=Where the Rainbow Hits the Ground
EXTD=YEAR: 2005
EXTT0=
EXTT1=
EXTT2=
EXTT3=
EXTT4=
EXTT5=
EXTT6=
EXTT7=
EXTT8=
EXTT9=
EXTT10=
EXTT11=
EXTT12=
PLAYORDER=
